<?xml version="1.0" encoding="UTF-8" standalone="no"?>
<svg
   id="svg1"
   width="206.20605"
   viewBox="0 0 94.113733 40.645008"
   version="1.1"
   xml:space="preserve"
   height="40.645008"
   xmlns:xlink="http://www.w3.org/1999/xlink"
   xmlns="http://www.w3.org/2000/svg"
   xmlns:svg="http://www.w3.org/2000/svg">
<defs
   id="defs1"><linearGradient
     id="linearGradient3">
<stop
   id="stop3"
   style="stop-color: #40addf; stop-opacity: 1"
   offset="0" />
<stop
   id="stop4"
   style="stop-color: #33d17a; stop-opacity: 1"
   offset="1" />
</linearGradient><linearGradient
     id="linearGradient1">
<stop
   id="stop1"
   style="stop-color: #40addf; stop-opacity: 1"
   offset="0" />
<stop
   id="stop2"
   style="stop-color: #33d17a; stop-opacity: 1"
   offset="1" />
</linearGradient><linearGradient
     id="linearGradient2"
     xlink:href="#linearGradient1"
     x1="14.78769"
     y1="79.654144"
     x2="143.45232"
     y2="79.654144"
     gradientUnits="userSpaceOnUse"
     gradientTransform="matrix(3.4011282,0,0,3.4011282,-91.980218,-89.980426)" /><linearGradient
     id="linearGradient4"
     xlink:href="#linearGradient3"
     x1="146.77214"
     y1="77.06398"
     x2="377.39893"
     y2="77.06398"
     gradientUnits="userSpaceOnUse"
     gradientTransform="matrix(3.4011282,0,0,3.4011282,-72.182817,-89.980426)" /></defs>
<g
   id="g1"
   transform="matrix(0.14166042,0,0,0.14166042,-50.140991,-5.3086153)">

<path
   id="rect5"
   style="fill:url(#linearGradient2);stroke-width:0.899881"
   d="m -41.685388,37.474231 395.312518,42.185332 -42.10376,23.892347 -30.26187,16.33606 4.22202,43.95234 23.3449,-7.80066 -10.42367,-9.76957 50.19657,-2.55652 7.98299,9.05574 23.16757,1.30562 16.1676,25.88755 -21.26351,-10.54414 -42.20348,17.415 -34.42507,71.90698 -100.38133,0.56255 L 25.079952,324.39283 12.956283,323.29257 224.69581,200.68374 222.96736,186.9791 151.932,170.88126 124.96126,151.45894 203.96835,134.85501 89.64117,141.02234 43.100568,110.62452 146.37555,94.667178 13.837523,87.536814 Z" /><text
   id="text1"
   xml:space="preserve"
   style="font-size:191.975px;font-family:orbitron;-inkscape-font-specification:orbitron;fill:url(#linearGradient4);stroke-width:0.899881"
   x="415.87332"
   y="246.03433">   <tspan
   id="tspan1"
   style="font-size:191.975px;fill:url(#linearGradient4);stroke-width:0.899881"
   x="415.87332"
   y="246.03433">FalconeX</tspan></text>
</g>
</svg>
