<?xml version="1.0" encoding="UTF-8" standalone="no"?>
<svg
   id="svg1"
   width="60.472443"
   viewBox="0 0 27.600001 60.472442"
   version="1.1"
   xml:space="preserve"
   height="60.472443"
   xmlns:xlink="http://www.w3.org/1999/xlink"
   xmlns="http://www.w3.org/2000/svg"
   xmlns:svg="http://www.w3.org/2000/svg">
<defs
   id="defs1"><linearGradient
     id="linearGradient1">
<stop
   id="stop1"
   style="stop-color: #40addf; stop-opacity: 1"
   offset="0" />
<stop
   id="stop2"
   style="stop-color: #33d17a; stop-opacity: 1"
   offset="1" />
</linearGradient><linearGradient
     id="linearGradient2"
     xlink:href="#linearGradient1"
     x1="14.78769"
     y1="79.654144"
     x2="143.45232"
     y2="79.654144"
     gradientUnits="userSpaceOnUse"
     gradientTransform="matrix(-3.3177972,0,0,5.0602652,702.95102,-145.35301)" /></defs>
<g
   id="g1"
   transform="matrix(0.14166042,0,0,0.14166042,-49.006712,-6.2722316)">

<path
   id="rect5"
   style="fill:url(#linearGradient2);stroke-width:1.08411"
   d="m 653.88846,44.276528 -385.62697,62.764162 41.07218,35.54749 29.52042,24.30512 -4.11857,65.39315 -22.77293,-11.60598 10.16828,-14.53535 -48.9667,-3.80364 -7.7874,13.4733 -22.59994,1.94253 -15.77148,38.51601 20.74253,-15.68778 41.16945,25.91038 33.58163,106.98461 97.92188,0.83697 168.3381,96.84214 11.82663,-1.63699 -206.5517,-182.41982 1.6861,-20.39003 69.29492,-23.95069 26.30993,-28.89691 -77.07134,-24.70365 111.52605,9.17588 45.40031,-45.22648 -100.74464,-23.74163 129.29072,-10.6087 z" />
</g>
</svg>
